<svg width="37" height="22" viewBox="0 0 37 22" fill="none" xmlns="http://www.w3.org/2000/svg">
<path d="M19.5932 7.33333C18.2141 3.06167 14.4805 0 10.0909 0C4.52409 0 0 4.93167 0 11C0 17.0683 4.52409 22 10.0909 22C14.4805 22 18.2141 18.9383 19.5932 14.6667H26.9091V22H33.6364V14.6667H37V7.33333H19.5932ZM10.0909 14.6667C8.24091 14.6667 6.72727 13.0167 6.72727 11C6.72727 8.98333 8.24091 7.33333 10.0909 7.33333C11.9409 7.33333 13.4545 8.98333 13.4545 11C13.4545 13.0167 11.9409 14.6667 10.0909 14.6667Z" fill="white"/>
</svg>
