<svg width="32" height="32" viewBox="0 0 32 32" fill="none" xmlns="http://www.w3.org/2000/svg">
<path d="M27.9534 16.8368L30.3461 18.615C31.1241 19.1886 31.3381 20.2593 30.8518 21.1006L27.7006 26.4542C27.2143 27.2954 26.1638 27.6396 25.269 27.2572L22.4874 26.11C22.0983 26.3586 21.6704 26.6071 21.2424 26.8174L20.8729 29.7619C20.7561 30.7179 19.9197 31.4445 18.9471 31.4445H12.664C11.6914 31.4445 10.855 30.7179 10.7383 29.7619L10.3687 26.8174C9.94072 26.6071 9.53223 26.3777 9.12373 26.11L6.34207 27.2572C5.44727 27.6396 4.39685 27.2954 3.91055 26.4542L0.759294 21.1006C0.272989 20.2593 0.486963 19.2077 1.26505 18.615L3.65767 16.8368C3.65767 16.6074 3.65767 16.3588 3.65767 16.1294C3.65767 15.8999 3.65767 15.6514 3.67712 15.4219L1.2845 13.6438C0.506415 13.0702 0.292441 11.9995 0.778746 11.1582L3.93 5.80457C4.4163 4.96329 5.46672 4.61913 6.36152 5.00153L9.14318 6.14873C9.53223 5.90017 9.96018 5.65161 10.3881 5.44129L10.7577 2.49681C10.855 1.55993 11.6914 0.833374 12.664 0.833374H18.9471C19.9197 0.833374 20.7561 1.55993 20.8729 2.51593L21.2424 5.46041C21.6704 5.67073 22.0789 5.90017 22.4874 6.16785L25.269 5.02065C26.1638 4.63825 27.2143 4.98241 27.7006 5.82369L30.8518 11.1773C31.3381 12.0186 31.1241 13.0702 30.3461 13.6629L27.9534 15.4411C27.9729 15.6705 27.9729 15.8999 27.9729 16.1485C27.9729 16.3971 27.9729 16.6074 27.9534 16.8368ZM21.6509 16.1294C21.6509 12.9555 19.0443 10.3934 15.8153 10.3934C12.5862 10.3934 9.97963 12.9555 9.97963 16.1294C9.97963 19.3033 12.5862 21.8654 15.8153 21.8654C19.0443 21.8654 21.6509 19.3033 21.6509 16.1294Z" fill="white"/>
</svg>
