<svg width="33" height="29" viewBox="0 0 33 29" fill="none" xmlns="http://www.w3.org/2000/svg">
<path d="M16.5 0.5C16.7761 0.5 17 0.723858 17 1V4C17 4.27614 16.7761 4.5 16.5 4.5H4.59961V24.5H16.5C16.7761 24.5 17 24.7239 17 25V28C17 28.2761 16.7761 28.5 16.5 28.5H4.09961C2.13422 28.4998 0.5 26.9413 0.5 25V4C0.5 2.05866 2.13422 0.500206 4.09961 0.5H16.5ZM23.9795 6.5791C24.1709 6.45583 24.428 6.47646 24.5977 6.64062L32.3477 14.1406C32.445 14.2348 32.5 14.3645 32.5 14.5C32.5 14.6355 32.445 14.7652 32.3477 14.8594L24.5977 22.3594C24.4034 22.5473 24.095 22.5468 23.9014 22.3584L21.7158 20.2285C21.619 20.1342 21.5642 20.0043 21.5645 19.8691C21.5647 19.734 21.6197 19.6047 21.7168 19.5107L24.8281 16.5H10.2998C10.0238 16.4999 9.7998 16.2761 9.7998 16V13C9.7998 12.7239 10.0238 12.5001 10.2998 12.5H24.8311L21.7158 9.47363C21.6189 9.37938 21.5643 9.24948 21.5645 9.11426C21.5647 8.9791 21.6197 8.84987 21.7168 8.75586L23.9023 6.64062L23.9795 6.5791Z" fill="white" stroke="white" stroke-linejoin="round"/>
</svg>
