<svg width="32" height="32" viewBox="0 0 32 32" fill="none" xmlns="http://www.w3.org/2000/svg">
<path d="M14.8309 30.8643L1.2025 17.2359C0.846207 16.8796 0.556715 16.4454 0.334029 15.9332C0.111343 15.421 0 14.8977 0 14.3633V4.00835C0 2.89492 0.389701 1.9485 1.1691 1.1691C1.9485 0.389701 2.89492 0 4.00835 0H14.3633C14.8977 0 15.421 0.111343 15.9332 0.334029C16.4454 0.556715 16.8796 0.846207 17.2359 1.20251L30.8643 14.8309C31.6214 15.588 32 16.5344 32 17.6701C32 18.8058 31.6214 19.7523 30.8643 20.5094L20.5094 30.8643C19.7523 31.6214 18.8058 32 17.6701 32C16.5344 32 15.588 31.6214 14.8309 30.8643ZM10.6889 13.3612C11.4461 13.3612 12.0807 13.1051 12.5929 12.5929C13.1051 12.0807 13.3612 11.4461 13.3612 10.6889C13.3612 9.9318 13.1051 9.29715 12.5929 8.78497C12.0807 8.27279 11.4461 8.0167 10.6889 8.0167C9.9318 8.0167 9.29715 8.27279 8.78497 8.78497C8.27279 9.29715 8.0167 9.9318 8.0167 10.6889C8.0167 11.4461 8.27279 12.0807 8.78497 12.5929C9.29715 13.1051 9.9318 13.3612 10.6889 13.3612Z" fill="white"/>
</svg>
