<svg width="41" height="20" viewBox="0 0 41 20" fill="none" xmlns="http://www.w3.org/2000/svg">
<path d="M20.5 11.25C23.2846 11.25 25.7446 11.9 27.7433 12.75C29.5883 13.55 30.75 15.35 30.75 17.3V18.3333C30.75 19.25 29.9813 20 29.0417 20H11.9583C11.0188 20 10.25 19.25 10.25 18.3333V17.3167C10.25 15.35 11.4117 13.55 13.2567 12.7667C15.2554 11.9 17.7154 11.25 20.5 11.25ZM6.83333 11.6667C8.7125 11.6667 10.25 10.1667 10.25 8.33333C10.25 6.5 8.7125 5 6.83333 5C4.95417 5 3.41667 6.5 3.41667 8.33333C3.41667 10.1667 4.95417 11.6667 6.83333 11.6667ZM8.76375 13.5C8.13167 13.4 7.49958 13.3333 6.83333 13.3333C5.14208 13.3333 3.53625 13.6833 2.08417 14.3C0.82 14.8333 0 16.0333 0 17.3833V18.3333C0 19.25 0.76875 20 1.70833 20H7.6875V17.3167C7.6875 15.9333 8.08042 14.6333 8.76375 13.5ZM34.1667 11.6667C36.0458 11.6667 37.5833 10.1667 37.5833 8.33333C37.5833 6.5 36.0458 5 34.1667 5C32.2875 5 30.75 6.5 30.75 8.33333C30.75 10.1667 32.2875 11.6667 34.1667 11.6667ZM41 17.3833C41 16.0333 40.18 14.8333 38.9158 14.3C37.4638 13.6833 35.8579 13.3333 34.1667 13.3333C33.5004 13.3333 32.8683 13.4 32.2363 13.5C32.9196 14.6333 33.3125 15.9333 33.3125 17.3167V20H39.2917C40.2313 20 41 19.25 41 18.3333V17.3833ZM20.5 0C23.3358 0 25.625 2.23333 25.625 5C25.625 7.76667 23.3358 10 20.5 10C17.6642 10 15.375 7.76667 15.375 5C15.375 2.23333 17.6642 0 20.5 0Z" fill="white"/>
</svg>
