<svg width="22" height="37" viewBox="0 0 22 37" fill="none" xmlns="http://www.w3.org/2000/svg">
<path d="M10.6177 24.9474C9.85214 24.9474 9.20655 24.6864 8.6809 24.1645C8.15397 23.6425 7.9224 23.0285 7.98619 22.3224C8.08188 21.0329 8.40085 19.9123 8.94309 18.9605C9.48533 18.0088 10.3465 17.0263 11.5267 16.0132C12.8345 14.9079 13.8309 13.9482 14.5161 13.1339C15.2025 12.321 15.5457 11.3925 15.5457 10.3487C15.5457 9.08991 15.1074 8.04605 14.2309 7.21711C13.3531 6.38816 12.1327 5.97368 10.5698 5.97368C9.54912 5.97368 8.68026 6.18061 7.96323 6.59447C7.24491 7.00956 6.66248 7.52412 6.21593 8.13816C5.76938 8.75219 5.21948 9.16667 4.56624 9.38158C3.91172 9.59649 3.28145 9.58114 2.67541 9.33553C1.94179 9.02851 1.43974 8.52193 1.16925 7.81579C0.897494 7.10965 0.952995 6.44956 1.33575 5.83553C2.26075 4.45395 3.50472 3.30263 5.06765 2.38158C6.63059 1.46053 8.46464 1 10.5698 1C13.919 1 16.4949 1.89833 18.2977 3.695C20.0992 5.49044 21 7.64693 21 10.1645C21 11.6996 20.6574 13.0124 19.9723 14.1029C19.2859 15.1922 18.209 16.4276 16.7418 17.8092C15.6573 18.7917 14.8918 19.5899 14.4452 20.2039C13.9987 20.818 13.6957 21.5241 13.5362 22.3224C13.4086 23.0899 13.0737 23.7193 12.5315 24.2105C11.9892 24.7018 11.3513 24.9474 10.6177 24.9474ZM10.5698 36C9.51723 36 8.61647 35.6396 7.86754 34.9187C7.11733 34.1966 6.74222 33.3289 6.74222 32.3158C6.74222 31.3026 7.11733 30.435 7.86754 29.7129C8.61647 28.992 9.51723 28.6316 10.5698 28.6316C11.6224 28.6316 12.5238 28.992 13.274 29.7129C14.0229 30.435 14.3974 31.3026 14.3974 32.3158C14.3974 33.3289 14.0229 34.1966 13.274 34.9187C12.5238 35.6396 11.6224 36 10.5698 36Z" fill="white" stroke="white"/>
</svg>
