<svg width="26" height="33" viewBox="0 0 26 33" fill="none" xmlns="http://www.w3.org/2000/svg">
<path d="M25.0652 9.06583L17.4177 1.41833C16.8318 0.8325 16.0243 0.5 15.1852 0.5H3.83268C2.09102 0.5 0.681849 1.925 0.681849 3.66667L0.666016 29C0.666016 30.7417 2.07518 32.1667 3.81685 32.1667H22.8327C24.5743 32.1667 25.9993 30.7417 25.9993 29V11.3142C25.9993 10.475 25.6668 9.6675 25.0652 9.06583ZM18.0827 17.9167H14.916V23.6325C14.916 25.6592 13.3327 27.4483 11.306 27.4167C9.02602 27.385 7.25268 25.2158 7.93352 22.8092C8.26602 21.6692 9.20018 20.735 10.356 20.4183C11.4643 20.1175 12.5093 20.3392 13.3327 20.8775V16.3333C13.3327 15.4625 14.0452 14.75 14.916 14.75H18.0827C18.9535 14.75 19.666 15.4625 19.666 16.3333C19.666 17.2042 18.9535 17.9167 18.0827 17.9167ZM16.4993 11.5833C15.6285 11.5833 14.916 10.8708 14.916 10V2.875L23.6243 11.5833H16.4993Z" fill="white"/>
</svg>
