<svg width="69" height="68" viewBox="0 0 69 68" fill="none" xmlns="http://www.w3.org/2000/svg">
<path d="M54.7664 34.4232C54.7664 41.9657 60.8808 48.0801 68.4232 48.0801V20.7664C60.8808 20.7664 54.7664 26.8808 54.7664 34.4232Z" fill="#0D0D0D"/>
<path d="M49.3756 34.4232C49.3756 44.943 57.9035 53.4709 68.4232 53.4709V48.0801C60.8808 48.0801 54.7664 41.9657 54.7664 34.4232C54.7664 26.8808 60.8808 20.7664 68.4232 20.7664V15.3756C57.9035 15.3756 49.3756 23.9035 49.3756 34.4232Z" fill="#6721FF"/>
<path fill-rule="evenodd" clip-rule="evenodd" d="M35 34.4232C35 52.8824 49.9641 67.8465 68.4232 67.8465V61.7369C53.3383 61.7369 41.1096 49.5081 41.1096 34.4232C41.1096 19.3383 53.3383 7.10963 68.4232 7.10963V1C49.9641 1 35 15.9641 35 34.4232Z" fill="#0D0D0D"/>
<path d="M41.1096 34.4232C41.1096 49.5081 53.3383 61.7369 68.4232 61.7369V53.4709C57.9035 53.4709 49.3756 44.943 49.3756 34.4232C49.3756 23.9035 57.9035 15.3756 68.4232 15.3756V7.10963C53.3383 7.10963 41.1096 19.3383 41.1096 34.4232Z" fill="#7744FF"/>
<path d="M54.7664 34.4232C54.7664 41.9657 60.8808 48.0801 68.4232 48.0801V20.7664C60.8808 20.7664 54.7664 26.8808 54.7664 34.4232Z" fill="#0D0D0D"/>
<path d="M49.3756 34.4232C49.3756 44.943 57.9035 53.4709 68.4232 53.4709V48.0801C60.8808 48.0801 54.7664 41.9657 54.7664 34.4232C54.7664 26.8808 60.8808 20.7664 68.4232 20.7664V15.3756C57.9035 15.3756 49.3756 23.9035 49.3756 34.4232Z" fill="#232323"/>
<path fill-rule="evenodd" clip-rule="evenodd" d="M35 34.4232C35 52.8824 49.9641 67.8465 68.4232 67.8465V61.7369C53.3383 61.7369 41.1096 49.5081 41.1096 34.4232C41.1096 19.3383 53.3383 7.10963 68.4232 7.10963V1C49.9641 1 35 15.9641 35 34.4232Z" fill="#0D0D0D"/>
<path d="M41.1096 34.4232C41.1096 49.5081 53.3383 61.7369 68.4232 61.7369V53.4709C57.9035 53.4709 49.3756 44.943 49.3756 34.4232C49.3756 23.9035 57.9035 15.3756 68.4232 15.3756V7.10963C53.3383 7.10963 41.1096 19.3383 41.1096 34.4232Z" fill="#232323"/>
</svg>
